<?xml version="1.0" standalone="no"?>
<!DOCTYPE svg PUBLIC "-//W3C//DTD SVG 20010904//EN"
 "http://www.w3.org/TR/2001/REC-SVG-20010904/DTD/svg10.dtd">
<svg version="1.0" xmlns="http://www.w3.org/2000/svg"
 width="1080.000000pt" height="1080.000000pt" viewBox="0 0 1080.000000 1080.000000"
 preserveAspectRatio="xMidYMid meet">
<metadata>
Created by potrace 1.16, written by Peter Selinger 2001-2019
</metadata>
<g transform="translate(0.000000,1080.000000) scale(0.100000,-0.100000)"
fill="#000000" stroke="none">
<path d="M4966 8851 c-6 -9 49 -179 80 -246 12 -27 30 -67 40 -88 21 -48 85
-117 107 -117 9 0 22 -9 29 -20 7 -11 24 -20 37 -20 24 0 24 0 18 86 -4 76 -9
92 -41 144 -20 32 -36 62 -36 67 0 5 -20 37 -45 71 -49 67 -51 95 -7 66 35
-23 110 -102 127 -135 8 -14 20 -31 29 -38 8 -7 20 -38 26 -69 24 -118 21
-112 37 -72 19 45 13 134 -12 184 -36 67 -98 133 -154 162 -47 24 -68 29 -143
30 -48 1 -90 -1 -92 -5z"/>
<path d="M5815 8813 c-16 -9 -34 -22 -40 -28 -5 -7 -31 -24 -57 -39 -27 -15
-48 -30 -48 -35 0 -4 -18 -27 -40 -52 -23 -24 -52 -68 -67 -98 -23 -47 -25
-62 -20 -126 5 -69 24 -126 47 -140 6 -4 10 21 10 70 0 45 6 90 15 112 8 19
15 44 15 54 0 10 9 23 19 29 12 6 21 23 23 41 2 20 12 36 30 47 15 9 30 14 33
11 7 -7 -11 -65 -33 -104 -30 -55 -29 -288 2 -330 11 -15 16 -13 55 24 42 40
73 89 85 135 3 13 10 98 16 189 6 93 17 185 25 208 8 23 15 43 15 45 0 10 -59
1 -85 -13z"/>
<path d="M4640 8618 c-19 -5 -41 -16 -49 -23 -12 -12 -8 -16 34 -27 26 -7 61
-25 76 -39 16 -15 45 -35 65 -45 20 -11 50 -26 67 -35 50 -25 123 -33 130 -14
10 25 -3 43 -35 50 -16 4 -32 13 -35 20 -7 20 -66 53 -108 61 -41 7 -45 20
-10 36 18 8 28 8 39 -1 22 -18 146 -60 146 -49 0 5 -8 12 -17 15 -9 4 -25 15
-35 25 -10 10 -30 23 -44 28 -32 13 -178 11 -224 -2z"/>
<path d="M4162 8588 c3 -7 13 -17 24 -22 21 -10 74 -89 74 -111 0 -8 8 -38 19
-67 10 -29 28 -85 40 -124 31 -102 103 -202 171 -237 73 -38 80 -36 80 21 0
26 -5 67 -11 92 -12 53 -77 192 -96 203 -7 4 -13 14 -13 22 0 7 -9 16 -19 20
-23 7 -35 35 -22 48 16 16 91 -42 124 -95 17 -27 33 -48 38 -48 7 0 59 -102
72 -142 9 -26 26 -22 33 8 18 70 -72 264 -121 264 -8 0 -20 8 -27 18 -25 35
-178 117 -234 125 -23 4 -54 14 -70 22 -35 18 -67 20 -62 3z"/>
<path d="M6260 8563 c-14 -3 -37 -17 -51 -32 -14 -14 -35 -31 -45 -37 -13 -7
-20 -24 -22 -50 l-3 -39 26 43 c28 45 65 58 65 23 0 -11 -5 -23 -10 -26 -10
-6 -40 -70 -40 -86 0 -5 9 -9 20 -9 21 0 100 74 100 94 0 6 7 22 16 35 9 13
20 38 24 57 8 33 7 34 -24 33 -17 -1 -42 -4 -56 -6z"/>
<path d="M6875 8400 c-23 -4 -45 -16 -53 -29 -8 -11 -20 -21 -27 -21 -15 0
-56 -61 -49 -72 7 -11 72 43 73 60 1 21 31 13 31 -8 0 -11 -7 -20 -15 -20 -9
0 -15 -9 -15 -24 0 -14 -6 -31 -13 -38 -19 -19 -27 -56 -13 -67 21 -18 95 64
122 135 37 98 37 99 -41 84z"/>
<path d="M6590 8380 c-14 -11 -32 -20 -40 -20 -8 0 -33 -14 -54 -30 -22 -17
-45 -30 -51 -30 -16 0 -115 -109 -115 -127 0 -7 -7 -16 -15 -19 -32 -13 -55
-69 -55 -137 0 -86 17 -165 38 -176 15 -8 17 -3 13 42 -4 60 15 149 41 193 10
17 18 41 18 53 0 11 4 21 10 21 5 0 16 14 25 30 9 17 22 30 30 30 17 0 19 -22
6 -48 -6 -9 -19 -47 -30 -84 -31 -100 -28 -302 4 -315 17 -6 93 69 101 101 3
13 12 27 20 30 8 3 14 17 14 31 0 15 4 34 9 44 6 10 11 78 12 151 1 139 14
207 45 241 25 28 5 43 -26 19z"/>
<path d="M3619 8370 c-25 -4 -59 -15 -75 -23 -16 -8 -46 -17 -66 -21 -21 -4
-40 -11 -43 -16 -6 -9 7 -14 76 -25 45 -7 137 -65 204 -128 27 -26 55 -47 61
-47 6 0 18 -10 27 -23 8 -13 37 -34 63 -48 27 -13 54 -29 61 -35 15 -14 123
-34 181 -34 35 0 42 3 42 19 0 26 -163 191 -189 191 -11 0 -33 11 -49 25 -17
14 -45 31 -64 37 -18 6 -46 20 -63 30 l-30 18 47 0 c49 0 208 -47 208 -61 0
-5 21 -20 48 -33 26 -13 53 -34 60 -45 21 -36 35 -25 28 22 -5 29 -16 50 -38
70 -17 15 -34 27 -39 27 -4 0 -20 11 -36 23 -30 25 -129 63 -203 77 -54 11
-148 10 -211 0z"/>
<path d="M5857 8160 c-38 -16 -81 -31 -96 -35 -16 -3 -46 -22 -67 -41 -22 -18
-44 -34 -51 -34 -32 0 -98 -172 -86 -222 13 -53 43 -59 43 -9 0 38 33 111 62
138 13 11 39 38 58 58 32 35 116 83 126 72 9 -8 -30 -64 -50 -73 -12 -5 -27
-22 -34 -37 -8 -16 -20 -31 -28 -34 -8 -3 -14 -11 -14 -19 0 -7 -11 -30 -25
-50 -14 -20 -25 -43 -25 -50 0 -8 -4 -14 -9 -14 -12 0 -35 -106 -26 -120 10
-16 52 -12 93 9 48 24 152 129 152 152 0 10 4 21 10 24 11 7 41 71 60 130 16
47 79 131 123 163 l31 22 -89 0 c-77 -1 -100 -5 -158 -30z"/>
<path d="M5350 8170 c-108 -24 -229 -64 -268 -88 -64 -39 -150 -124 -159 -158
-12 -47 -10 -147 4 -151 7 -3 15 10 19 32 3 20 17 46 29 58 12 12 25 34 29 49
3 15 15 30 26 33 11 3 20 12 20 18 0 11 20 27 99 79 27 19 61 24 61 10 0 -5
-31 -41 -70 -82 -38 -41 -70 -79 -70 -86 0 -6 -9 -18 -19 -25 -23 -17 -61
-183 -45 -199 6 -6 28 -4 62 6 43 13 66 29 113 77 32 34 62 71 65 82 8 30 37
88 52 103 6 7 12 18 12 24 0 12 49 115 65 136 19 25 42 47 60 58 11 6 15 15
11 22 -8 13 -43 14 -96 2z"/>
<path d="M6876 8105 c-40 -14 -107 -63 -114 -83 -5 -17 24 -15 61 5 25 14 58
18 157 18 135 0 163 -5 154 -30 -5 -11 -21 -15 -61 -15 -49 0 -103 -10 -232
-42 -24 -6 -55 -22 -69 -35 -14 -12 -29 -23 -34 -23 -22 0 -1 -46 27 -60 48
-24 215 -20 289 7 32 11 62 26 65 32 9 14 91 30 189 38 39 3 72 8 72 12 0 4
-9 16 -21 27 -11 10 -31 29 -43 42 -13 12 -30 22 -39 22 -9 0 -19 5 -22 10 -4
6 -25 19 -48 29 -132 59 -250 75 -331 46z"/>
<path d="M3510 8019 c-36 -4 -78 -13 -95 -19 -28 -11 -29 -13 -11 -24 10 -6
34 -23 53 -38 19 -15 47 -30 64 -33 16 -4 36 -17 44 -29 9 -13 27 -28 41 -34
27 -13 164 -17 164 -4 -1 22 -45 55 -122 91 -53 25 -88 47 -88 56 0 8 8 15 18
15 34 0 147 -42 170 -63 17 -16 22 -17 22 -6 0 19 -51 69 -71 69 -8 0 -19 4
-24 9 -15 13 -94 19 -165 10z"/>
<path d="M3025 7860 c-4 -6 5 -20 19 -31 14 -11 26 -26 26 -34 0 -7 6 -15 14
-18 25 -10 45 -50 67 -133 11 -43 29 -93 39 -110 10 -17 21 -50 25 -73 4 -23
18 -55 31 -70 13 -16 24 -34 24 -40 0 -6 13 -17 29 -26 16 -8 38 -26 50 -40
20 -27 82 -51 106 -41 9 3 11 22 7 73 -7 88 -33 165 -71 205 -17 18 -31 37
-31 42 0 4 -22 39 -50 77 -27 38 -50 71 -50 74 0 17 33 -1 71 -40 24 -25 52
-48 61 -51 41 -13 112 -152 124 -243 4 -28 10 -48 14 -46 5 3 18 25 29 48 27
56 27 116 1 150 -11 14 -20 29 -20 35 0 5 -15 25 -32 44 -18 19 -50 53 -70 76
-21 23 -45 42 -55 42 -16 0 -82 40 -111 68 -7 6 -22 12 -33 12 -21 0 -95 21
-162 46 -45 17 -44 17 -52 4z"/>
<path d="M3930 7715 c-14 -7 -38 -17 -55 -22 -47 -13 -44 -39 5 -47 25 -4 54
-19 78 -39 20 -18 60 -41 87 -51 28 -10 54 -23 60 -27 12 -12 115 -11 115 0 0
19 -56 68 -100 89 -25 11 -64 23 -87 27 -58 9 -66 35 -11 35 41 0 136 -23 172
-42 15 -8 14 -4 -6 22 -14 18 -43 40 -64 48 -53 20 -162 25 -194 7z"/>
<path d="M5413 7695 c-18 -8 -33 -19 -33 -26 0 -6 -7 -8 -16 -5 -19 7 -94 -30
-94 -48 0 -26 14 -25 56 6 24 17 47 29 50 25 4 -3 -10 -29 -30 -57 -20 -27
-36 -53 -36 -57 0 -3 -7 -14 -16 -24 -18 -20 -13 -49 9 -49 27 0 85 56 106
101 11 26 21 51 21 56 0 5 14 23 30 41 17 18 30 37 30 43 0 13 -40 10 -77 -6z"/>
<path d="M6692 7679 c-24 -4 -76 -24 -117 -44 -40 -19 -78 -35 -83 -35 -17 0
-107 -106 -129 -153 -23 -47 -29 -100 -17 -144 8 -28 24 -30 24 -4 0 24 49
131 60 131 5 0 11 8 14 18 7 22 85 102 111 113 11 5 28 14 37 21 13 9 20 10
28 2 8 -8 0 -22 -30 -50 -23 -21 -53 -58 -67 -81 -14 -24 -29 -43 -33 -43 -5
0 -14 -17 -21 -37 -6 -21 -18 -47 -25 -58 -20 -27 -19 -135 0 -135 8 0 17 4
21 9 3 5 19 12 35 16 16 4 34 14 39 23 5 9 26 26 46 37 30 16 46 38 81 105 24
47 56 118 71 159 21 56 37 82 70 110 24 20 43 39 43 43 0 10 -103 8 -158 -3z"/>
<path d="M4460 7644 c0 -6 32 -49 63 -84 20 -24 34 -64 67 -185 29 -109 65
-176 129 -244 33 -34 110 -66 125 -51 14 14 -8 187 -27 209 -8 9 -18 26 -22
39 -3 12 -16 33 -28 47 -103 113 -95 175 10 78 28 -27 54 -58 58 -70 3 -13 10
-23 15 -23 12 0 68 -120 76 -164 l7 -39 15 28 c19 37 11 134 -15 191 -25 56
-126 151 -190 181 -29 14 -53 28 -53 32 0 16 -145 61 -197 61 -18 0 -33 -3
-33 -6z"/>
<path d="M7270 7615 c-40 -13 -98 -59 -138 -109 -16 -20 -36 -86 -28 -93 3 -3
25 15 48 40 46 49 114 90 175 105 63 16 133 22 133 12 0 -5 -39 -28 -87 -51
-49 -23 -92 -48 -96 -55 -4 -8 -23 -20 -41 -28 -18 -8 -44 -29 -57 -47 -13
-19 -32 -42 -42 -52 -10 -10 -17 -26 -15 -35 3 -14 15 -17 75 -15 85 1 167 26
195 58 11 13 33 29 48 35 15 6 33 23 41 36 7 14 22 30 34 36 11 6 36 24 55 39
19 16 57 39 84 52 l48 23 -24 16 c-71 47 -303 65 -408 33z"/>
<path d="M5860 7576 c-30 -7 -85 -27 -122 -44 -37 -18 -70 -32 -74 -32 -7 0
-68 -52 -119 -101 -49 -46 -72 -177 -43 -246 l12 -28 7 45 c12 79 34 130 59
143 14 7 30 23 36 36 19 37 85 99 117 110 28 10 29 10 22 -17 -3 -15 -22 -40
-41 -57 -34 -29 -51 -54 -74 -104 -6 -14 -24 -54 -41 -90 -33 -71 -37 -143 -9
-149 9 -1 48 18 87 43 62 39 78 56 112 116 23 39 41 76 41 82 0 6 7 18 15 27
9 10 19 35 22 56 3 22 11 46 18 54 7 8 15 27 19 43 4 15 23 45 42 67 54 60 31
72 -86 46z"/>
<path d="M6070 7383 c-45 -19 -100 -72 -100 -95 0 -10 -4 -18 -10 -18 -5 0
-10 -7 -10 -15 0 -9 8 -6 25 11 14 14 25 31 25 39 0 8 9 15 19 15 11 0 23 5
26 10 3 6 14 10 23 10 16 -1 16 -2 0 -14 -10 -7 -18 -19 -18 -25 0 -7 -11 -27
-25 -45 -22 -29 -35 -96 -19 -96 17 0 84 45 84 57 0 21 48 123 58 123 6 0 15
14 21 30 10 30 10 30 -27 29 -20 0 -53 -7 -72 -16z"/>
<path d="M5289 7288 c-7 -12 -18 -28 -25 -35 -12 -13 -34 -98 -34 -131 1 -9 7
-28 15 -42 14 -24 14 -23 15 27 0 28 5 64 11 80 l12 28 8 -40 c4 -22 10 -62
14 -88 5 -37 11 -50 28 -56 13 -5 27 -5 35 1 17 14 15 82 -4 148 -9 30 -19 71
-23 90 -8 42 -34 51 -52 18z"/>
<path d="M3918 7294 c-4 -4 -36 -13 -70 -19 -113 -23 -176 -43 -197 -64 -12
-12 -20 -21 -18 -21 92 -13 163 -32 181 -49 12 -12 26 -21 30 -21 5 0 24 -13
43 -30 18 -16 39 -30 46 -30 7 0 29 -14 49 -30 64 -53 205 -93 306 -88 51 3
57 5 60 27 4 26 -41 72 -95 97 -18 8 -33 18 -33 24 0 5 -17 17 -37 26 -21 10
-45 23 -54 31 -9 7 -41 18 -71 23 -95 15 -143 31 -127 41 22 14 127 10 194 -7
33 -8 76 -19 95 -24 19 -5 40 -16 46 -24 6 -9 16 -16 21 -16 5 0 18 -9 28 -20
23 -25 37 -14 27 22 -8 31 -97 105 -144 120 -79 25 -266 47 -280 32z"/>
<path d="M7608 7164 c-56 -29 -88 -67 -87 -103 l0 -26 15 30 c13 25 94 84 94
69 0 -3 -18 -33 -40 -68 -39 -61 -51 -106 -30 -106 33 0 72 35 100 90 16 33
30 66 30 73 0 8 7 20 15 27 8 7 15 19 15 26 0 22 -59 16 -112 -12z"/>
<path d="M2736 7125 c-67 -9 -115 -20 -125 -29 -10 -9 -33 -21 -52 -27 -19 -7
-43 -18 -53 -25 -24 -16 -13 -21 59 -27 53 -4 105 -25 170 -68 55 -36 126 -83
139 -91 6 -4 42 -22 81 -40 62 -29 80 -33 173 -36 66 -3 108 0 116 7 18 15 9
49 -18 63 -11 6 -29 21 -39 34 -9 13 -28 26 -40 30 -12 4 -39 17 -59 30 -58
37 -137 64 -212 75 -76 10 -90 17 -76 38 11 19 111 18 181 -3 30 -9 82 -23
116 -33 40 -11 75 -29 99 -51 25 -22 39 -30 44 -22 11 18 -1 61 -19 68 -9 3
-24 15 -34 26 -10 12 -31 28 -46 36 -16 8 -39 22 -52 31 -34 24 -215 31 -353
14z"/>
<path d="M6980 7094 c-85 -17 -137 -38 -164 -67 -47 -51 -92 -147 -70 -147 9
0 44 41 44 51 0 12 111 73 160 87 90 26 123 33 142 26 28 -8 5 -32 -40 -40
-19 -4 -54 -20 -78 -35 -23 -16 -45 -29 -49 -29 -7 0 -63 -41 -102 -74 -13
-11 -23 -25 -23 -31 0 -6 -9 -19 -21 -28 -35 -30 -21 -52 36 -55 76 -5 148 14
197 53 24 19 51 35 61 35 11 0 21 9 24 20 3 11 28 37 55 57 28 21 69 52 92 70
22 17 46 32 53 32 6 1 24 6 39 12 l28 10 -51 24 c-44 21 -70 25 -179 29 -71 3
-140 2 -154 0z"/>
<path d="M6175 7014 c-11 -3 -42 -11 -70 -19 -27 -8 -76 -22 -108 -31 -32 -9
-71 -27 -86 -40 -16 -13 -34 -24 -40 -24 -18 0 -81 -70 -81 -89 0 -9 -7 -26
-15 -37 -14 -19 -20 -99 -9 -128 11 -28 24 -17 24 18 0 19 7 41 15 50 8 8 15
22 15 30 0 9 18 27 40 41 22 14 40 32 40 40 0 9 10 20 23 25 12 6 40 24 62 40
38 28 75 39 75 23 0 -12 -117 -133 -128 -133 -5 0 -14 -18 -21 -39 -7 -24 -19
-42 -31 -46 -11 -4 -20 -12 -20 -20 0 -7 -7 -25 -15 -41 -19 -38 -9 -42 83
-36 68 4 75 7 112 42 22 21 40 43 40 48 0 5 9 17 20 27 11 10 20 28 20 40 0
12 9 34 20 48 11 14 20 30 20 36 0 6 4 11 10 11 5 0 18 17 29 38 22 41 70 97
91 104 8 2 10 9 6 16 -7 11 -77 15 -121 6z"/>
<path d="M3560 6941 c-63 -10 -95 -28 -79 -47 6 -8 21 -14 32 -14 11 0 34 -10
51 -23 17 -13 59 -40 94 -61 57 -34 71 -39 134 -40 44 0 72 3 75 10 2 6 -16
24 -39 39 -24 16 -52 37 -63 46 -11 9 -33 19 -50 23 -73 16 -113 46 -62 46 35
0 165 -36 182 -50 9 -7 18 -11 21 -8 8 8 -56 69 -83 79 -27 10 -144 10 -213 0z"/>
<path d="M4640 6927 c0 -2 25 -29 55 -61 30 -31 55 -65 55 -75 0 -9 11 -32 25
-51 14 -19 25 -37 25 -41 0 -13 63 -109 71 -109 4 0 11 -9 14 -20 7 -22 50
-26 153 -14 57 7 63 16 32 48 -38 39 -80 94 -80 104 0 5 -12 18 -27 28 -58 37
-102 94 -74 94 24 0 69 -24 98 -52 17 -17 42 -36 55 -42 13 -6 46 -48 73 -93
58 -95 81 -104 79 -32 -2 55 -32 121 -60 133 -12 5 -30 23 -40 39 -31 47 -200
123 -304 136 -83 11 -150 14 -150 8z"/>
<path d="M7688 6850 c-35 -9 -124 -68 -140 -94 -4 -6 -8 -19 -8 -29 0 -15 6
-13 38 12 43 35 91 56 148 66 49 8 70 -10 24 -20 -16 -4 -33 -12 -37 -19 -10
-15 -106 -76 -121 -76 -18 0 -48 -70 -33 -79 24 -15 128 6 165 34 20 15 36 31
36 36 0 5 13 15 28 23 15 8 50 33 77 55 27 22 58 42 69 43 17 3 12 8 -24 27
-50 27 -158 37 -222 21z"/>
<path d="M5330 6779 c0 -18 62 -199 69 -200 68 -13 91 -2 67 32 -17 25 -22 69
-7 69 5 0 24 -20 42 -45 33 -43 57 -61 67 -50 8 8 -36 95 -47 95 -5 0 -30 18
-55 39 -25 22 -59 42 -75 46 -17 4 -33 11 -36 16 -8 12 -25 11 -25 -2z"/>
<path d="M2727 6671 c-17 -6 -17 -8 2 -25 20 -18 30 -35 72 -118 10 -20 34
-46 52 -57 36 -22 101 -28 127 -11 13 9 13 12 -1 23 -42 32 -96 86 -102 100
-12 32 94 -18 133 -63 20 -22 41 -40 48 -40 17 0 16 4 -13 46 -51 76 -133 124
-209 124 -15 0 -41 6 -59 13 -18 8 -40 11 -50 8z"/>
<path d="M3475 6583 c-22 -2 -51 -6 -64 -9 -21 -4 -22 -7 -10 -19 8 -7 44 -26
81 -42 61 -27 73 -28 135 -22 37 5 117 8 177 8 60 1 106 4 102 8 -7 7 -59 23
-141 44 -22 5 -54 16 -72 24 -29 14 -106 17 -208 8z"/>
<path d="M6360 6529 c-170 -13 -412 -61 -525 -104 -55 -21 -134 -49 -175 -62
-83 -28 -84 -28 -155 -68 -27 -16 -75 -42 -105 -58 -30 -16 -71 -42 -90 -57
-41 -32 -135 -80 -157 -80 -8 0 -20 -6 -27 -12 -18 -17 -97 -85 -173 -147 -34
-28 -74 -68 -90 -88 -15 -21 -41 -49 -57 -63 -16 -14 -35 -40 -43 -57 -7 -18
-20 -33 -28 -33 -10 0 -15 -10 -15 -29 0 -28 -46 -111 -61 -111 -7 0 -76 -116
-92 -154 -4 -11 -13 -26 -19 -34 -19 -22 -118 -242 -139 -307 -106 -323 -132
-652 -78 -955 7 -36 11 -88 10 -117 -2 -48 36 -189 58 -218 10 -12 31 -71 37
-104 3 -13 14 -37 24 -52 11 -15 20 -34 20 -42 0 -9 5 -19 11 -23 6 -3 19 -25
30 -48 33 -69 51 -99 88 -148 20 -26 52 -68 71 -95 19 -26 58 -73 85 -104 28
-31 65 -74 84 -97 19 -22 51 -48 73 -58 21 -9 38 -21 38 -26 0 -12 15 -26 65
-63 22 -17 44 -36 48 -42 4 -7 14 -13 21 -13 7 0 26 -10 42 -22 15 -13 39 -28
53 -35 l26 -11 -32 -1 c-18 -1 -33 -6 -33 -11 0 -6 27 -9 65 -8 48 1 69 -3 83
-15 10 -9 25 -17 33 -17 8 0 34 -11 59 -24 115 -62 263 -122 320 -130 42 -6
87 -19 185 -52 23 -8 61 -14 85 -14 25 -1 74 -7 110 -15 114 -25 344 -19 584
15 114 16 243 41 285 54 42 13 94 28 116 32 22 4 78 25 124 46 46 22 105 46
130 55 25 8 53 21 62 29 8 8 18 14 22 14 6 0 151 91 172 108 15 12 6 142 -11
149 -7 3 -37 -12 -66 -34 -54 -40 -109 -71 -249 -139 -94 -47 -129 -60 -209
-79 -30 -7 -68 -17 -85 -23 -69 -24 -157 -45 -262 -62 -149 -23 -533 -20 -633
5 -36 9 -94 23 -130 30 -36 8 -94 25 -129 39 -35 14 -80 29 -100 32 -32 6
-133 55 -155 75 -6 5 -18 9 -28 9 -9 0 -32 18 -49 40 -18 22 -37 40 -43 40
-17 0 -238 170 -291 224 -27 28 -60 58 -71 66 -24 17 -124 139 -124 151 0 4
-12 10 -27 14 -64 15 -253 377 -304 580 -6 22 -17 78 -24 123 -8 46 -19 100
-26 119 -34 106 4 578 60 728 4 11 20 58 35 105 42 130 117 286 195 403 38 57
48 66 68 61 16 -4 23 -2 23 9 0 8 20 39 45 69 25 30 45 60 45 65 0 6 11 18 24
27 14 8 33 29 42 46 10 16 23 30 30 30 6 0 22 12 37 28 14 15 32 32 40 38 8 7
22 22 33 35 19 24 35 37 108 85 32 22 43 24 62 15 13 -6 24 -7 24 -2 0 5 -7
11 -15 15 -29 11 -16 45 28 72 23 15 71 46 107 69 36 23 83 48 105 55 22 8 72
28 111 47 100 46 123 55 169 64 22 4 65 15 95 24 257 77 571 95 815 47 55 -11
118 -23 140 -27 22 -3 76 -19 120 -35 44 -15 98 -31 119 -35 22 -4 66 -20 98
-36 69 -35 71 -33 72 69 l1 65 -80 34 c-44 19 -118 43 -165 53 -47 11 -110 27
-140 36 -101 30 -184 42 -357 53 -94 6 -177 10 -185 9 -7 0 -60 -5 -118 -9z"/>
<path d="M7454 6357 c-14 -36 -1 -52 41 -49 22 1 47 -2 55 -8 13 -9 12 -12 -4
-25 -11 -8 -35 -15 -53 -15 l-33 0 0 -85 c0 -47 2 -85 5 -85 21 0 86 45 109
74 15 20 33 36 40 36 6 0 27 15 45 34 23 23 50 39 82 46 27 7 49 15 49 20 0
30 -96 58 -227 66 -88 6 -103 5 -109 -9z"/>
<path d="M2755 6148 c-27 -12 -61 -25 -75 -31 -45 -18 -90 -41 -90 -47 0 -3
32 -13 70 -22 39 -9 77 -24 86 -32 8 -9 21 -16 28 -16 7 0 30 -11 50 -25 50
-34 69 -34 54 1 -10 21 -9 27 3 35 12 7 11 9 -2 9 -9 0 -22 6 -28 14 -7 9 -31
14 -58 14 -89 0 -85 53 5 62 60 6 62 8 51 38 -10 27 -28 27 -94 0z"/>
</g>
</svg>
